<?xml version="1.0" encoding="utf-8"?>
<!-- Generator: Adobe Illustrator 25.0.0, SVG Export Plug-In . SVG Version: 6.00 Build 0)  -->
<svg version="1.1" id="Layer_1" xmlns="http://www.w3.org/2000/svg" xmlns:xlink="http://www.w3.org/1999/xlink" x="0px" y="0px"
	 viewBox="0 0 6365.1 3138.8" style="enable-background:new 0 0 6365.1 3138.8;" xml:space="preserve">
<style type="text/css">
	.st0{fill:#FFFFFF;}
	.st1{opacity:0.22;enable-background:new    ;}
	.st2{fill:#FFFFFF;stroke:#FFFFFF;stroke-width:9;stroke-miterlimit:10;}
</style>
<rect width="6365.1" height="3138.8"/>
<g>
	<path class="st0" d="M1677.7,521.1v1212.4c-18.7,28.1-39,52.9-60.4,74.3c-51.1,50.5-109.4,81-172.9,86.1c-3.6,0.3-7.3,0.6-10.9,0.6
		V696.1c48.7-86.1,117-147.2,201.9-171.6c4.5-1.2,9.1-2.4,13.6-3.3H1677.7z"/>
	<path class="st0" d="M2155.5,827c0,168.6-118.8,305.5-265.6,305.5c-12.4,0.1-24.7-1-36.9-3c53.8-55.6,90.7-173.8,90.7-310.4
		c0-126.3-31.7-236.9-78.9-296.8c8.2-0.6,16.6-1.2,25.1-1.2C2036.8,521.1,2155.5,658,2155.5,827z"/>
	<path class="st0" d="M2278.2,1543c0,184.9-125.4,334.8-279.8,334.8c-11.3,0-22.7-0.9-33.8-2.7c62.6-23,110.6-163.2,110.6-332.1
		c0-169.8-48.4-310.1-111.2-332.4c11.4-1.8,22.9-2.7,34.4-2.7C2152.8,1207.9,2278.2,1357.8,2278.2,1543z"/>
	<path class="st0" d="M2834.1,1236.7v122.7c-10-0.9-20.5-1.2-30.8-1.2c-128.4,0-238.7,62.6-285.9,151.7v404.9h-135.1v-637.3
		c10.3-5.7,21.5-10.6,33.2-15.1c38.1-13.9,75-17.8,101.8-12.4v136.9c47.1-89.2,157.4-151.4,285.9-151.4
		C2813.6,1235.5,2824.1,1235.8,2834.1,1236.7z"/>
	<path class="st0" d="M3354.8,1255.5v63.2c-59-52-135.7-83.1-219.7-83.1c-186.5,0-337.9,154.7-337.9,345.7s151.4,345.7,337.9,345.7
		c84,0,160.8-31.1,219.7-82.8v64.4h112.4v-653L3354.8,1255.5z M3152,1827.2c-129.9,0-235.1-110.6-235.1-247.2
		s105.2-247.2,235.1-247.2c86.7,0,162.3,49.3,202.8,122.4v249.6C3314.3,1778,3238.7,1827.2,3152,1827.2z"/>
	<path class="st0" d="M3740.7,1242.5v665.5h-138.4v-611.1c10.3-12.4,22.5-23,36.3-31.4c22.1-13.6,45.3-21.2,66.8-23H3740.7z"/>
	
		<ellipse transform="matrix(0.6591 -0.7521 0.7521 0.6591 533.5226 3174.293)" class="st0" cx="3768" cy="998.7" rx="204.4" ry="83"/>
	<path class="st0" d="M4607.4,1244H4207c-10.9-0.9-21.8-1.5-32.9-1.5c-171.6,0-310.4,123.9-310.4,277.1
		c0,152.9,138.7,276.8,310.4,276.8c171.3,0,310.4-123.9,310.4-276.8c0-56.5-18.7-109.1-51.1-152.6h174.1L4607.4,1244z
		 M4368.1,1519.6c0,107.3-86.7,194-194,194c-107.3,0-194.3-86.7-194.3-194c0-107.6,87-194.3,194.3-194.3c11.1-0.1,22.1,0.9,32.9,3
		c31.8,5.1,61.7,18.4,86.7,38.7C4339,1402,4368.1,1457.3,4368.1,1519.6L4368.1,1519.6z"/>
	<path class="st0" d="M4558.7,2062.9v0.6c0,39.9-6.7,75.5-16.9,100l-26.9,0.9h-96.1c3.4-8.1,5.8-16.6,7-25.4
		c7.9-53.5-24.8-102.7-73.1-109.7c-1.5-0.3-3-0.4-4.5-0.3c-51.1-20.2-139.6-16.3-233,14.2c-25.8,8.3-51,18.6-75.2,30.8
		c-14.7,6.9-29,14.8-42.6,23.6c-7.6,15.7-24.5,28.1-45.9,33.8c-6.6,1.9-13.4,3-20.2,3.3c-2.6,0.5-5.2,0.7-7.9,0.6
		c-2.3,0.1-4.7-0.1-7-0.6c-13-3.3-24.8-13-33.8-26.3c-11.5-17.2-18.7-41.1-18.7-67.4v-0.6c0-3,0-6,0.3-9.1l38.7-79.8h0.3
		l110.9-227.9l89.1,43.6l-116,237.5l-2.1,4.5c0.8-1,1.7-1.9,2.7-2.7c59.5-66.2,161.1-109.7,276.2-109.7
		c80.4,0,154.4,21.5,212.1,57.1c25.3,15,48,33.8,67.4,55.9c2.5,2.4,4.8,5.2,6.6,8.2c3,4.3,5.2,9.1,6.3,14.2
		c1.2,5.4,1.5,11.5,1.8,17.2C4558.4,2054.2,4558.4,2058.4,4558.7,2062.9z"/>
</g>
<path class="st1" d="M4747.3,2175.1l31.9-1.1c0,0.4-0.4,0.7-0.4,1.1H4747.3z"/>
<path class="st1" d="M6365.1,3138.8c0-9.1-1-17.6-1.3-26.6c0,0.7,0.2,1.5,0.2,2.2C6364.6,3122.7,6364.6,3130.5,6365.1,3138.8z"/>
<path class="st1" d="M4717,1687.1c-1.6,1-3,2.2-4.3,3.6c-1.1,0.5-2.3,0.8-3.6,0.7c-9.2,0-18.3-1.4-27.1-4.3
	c5.4,1.2,10.9,1.7,16.4,1.4C4704.6,1688.8,4710.9,1688.3,4717,1687.1z"/>
<g>
	<rect x="3412.5" y="2024" class="st0" width="75.5" height="388.9"/>
	<path class="st2" d="M2435.6,2090.1v69.4h61.8v33.4h-61.8v130.2c0,29.9,8.3,46.9,32.4,46.9c8.4,0.1,16.9-0.9,25-3l2,32.9
		c-8.3,3.5-21.6,6-38.3,6c-20.1,0-36.3-6.5-46.6-18.5c-12.3-13-16.7-34.4-16.7-62.9v-131.7h-36.8v-33.4h36.8v-57.9L2435.6,2090.1z"
		/>
	<path class="st0" d="M3590,2356c15.7,8.5,43.5,17.5,70.2,17.5c38.7,0,56.9-16,56.9-35.9c0-21-15.1-32.4-54.4-44.4
		c-52.6-15.5-77.4-39.4-77.4-68.4c0-38.9,38.1-70.8,101-70.8c29.6,0,55.6,7,72,15l-13.3,32c-11.5-6-32.7-14-59.9-14
		c-31.4,0-49,15-49,32.9c0,20,17.5,28.9,55.6,40.9c50.8,16,76.8,36.9,76.8,72.8c0,42.4-39.9,72.3-109.5,72.3
		c-32.1,0-61.7-6.5-82.3-16.5L3590,2356z"/>
	<path class="st0" d="M3293,2242.1c-0.8-11.3-2.9-22.6-6.3-33.4c6.3-10.7,10-23.8,11.5-28.2c3.3-11.9,8.5-29.3,1.5-44.6
		c-11.9-26.7-56.1-38.2-80.9-31.2c-8.3-7-17.3-13.2-26.7-18.6c-4.8-11.1-12.3-21.2-14.8-24.9c-7.4-10.4-18.2-24.5-34.5-28.6
		c-20-4.8-43.8,7.4-59.4,23.8h-0.4c-17,0.1-33.9,2.1-50.5,5.9c-11.1-3.3-23.8-4.5-28.2-5.2c-12.6-1.1-30.4-2.6-44.2,7.1
		c-13.8,9.7-20.8,29-21.5,47.9c-16.7,14.7-30.7,32.3-41.2,52c-3.3,1.5-6.3,2.6-7.8,3.3c-11.1,5.2-27.5,12.6-34.5,27.9
		c-10,21.5,1.1,52.3,17.4,70.9c0.4,21.5,4.6,42.7,12.3,62.7c-1.1,2.2-1.9,4.1-2.6,5.6c-5.2,11.1-13,27.5-8.9,43.4
		c8.2,30.4,55.7,49.7,80.6,43.1c8.7,7,18.2,12.9,28.2,17.8c4.5,11.9,12.6,23.4,15.6,27.1c7.4,10.4,17.8,24.9,34.2,28.6
		c23.4,5.9,52-11.5,66.8-31.2c19.4-1,38.6-5.1,56.8-11.9c10.7,11.5,37.1,16,44.2,17.1c12.3,1.9,30.1,4.8,44.6-3.7
		c28.6-17.4,32.3-74.2,15.6-93.2c3.3-4.8,6.3-10,9.3-14.8c11.9-5.2,23.4-14.5,27.5-17.4c10-7.8,23.8-19.3,27.1-35.6
		C3327.6,2281.8,3311.6,2256.6,3293,2242.1z M2937.7,2306.3c-5.2-14.8-7.9-30.4-7.8-46c-0.1-1.6,0.1-3.2,0.4-4.8
		c0.6-24.1,7.5-47.7,20-68.3c4.7-8.4,10.3-16.2,16.7-23.4c18.5-20.1,41.9-35.1,68-43.4c15.5-5,31.6-7.5,47.9-7.4h2.6
		c21.5,0.4,42.3,4.8,60.9,13.4c52.7,23,89.4,74.6,89.4,134v2.6c-0.3,12.7-2.2,25.3-5.6,37.5c-18.2,61.6-77.2,106.9-147.4,106.9
		c-4.8,0-9.7-0.4-14.5-0.7c-8.7-0.7-17.2-2.2-25.6-4.5c-30.8-7.9-58.5-25.1-79.1-49.4v-0.4
		C2952.1,2338.9,2943.3,2323.2,2937.7,2306.3L2937.7,2306.3z"/>
	<path class="st0" d="M2839.2,2343.8v0.4c-1.9,10.7-7,20.8-15.2,25.6c-8.9,5.2-20.4,3.3-27.8,2.2c-4.5-0.8-21.2-3.3-27.8-10.7
		c-11.5,4.2-23.5,6.7-35.6,7.4c-9.7,12.6-27.5,23.4-42.3,19.7c-10-2.2-16.7-11.5-21.5-17.8c-3.8-5.3-7.1-11.1-9.7-17.1
		c-6.3-3.3-12.3-7.1-17.8-11.5c-15.6,4.5-45.3-7.8-50.5-27.1c-2.6-10,2.2-20.1,5.6-27.1c0.4-1.3,0.9-2.5,1.5-3.7
		c-4.7-12.6-7.3-25.9-7.8-39.4c-10-11.5-17.1-31.2-10.7-44.6c4.5-9.7,14.5-14.1,21.5-17.4c1.8-0.6,3.5-1.4,5.2-2.2
		c6.5-12.4,15.2-23.4,25.6-32.7c0.7-11.9,5.2-24.1,13.7-30.1c8.5-5.9,19.7-5.2,27.8-4.5c2.6,0.4,10.7,1.1,17.8,3.3
		c10.3-2.6,20.9-3.8,31.6-3.7h0.4c9.7-10.4,24.5-18.2,37.1-15.2c10.4,2.6,17.1,11.5,21.9,18.2c1.5,2.2,6.3,8.5,9.3,15.6
		c5.9,3.4,11.4,7.3,16.7,11.5c7.8-1.9,18.6-1.5,28.6,1.9c-12.6,13.4-22.6,31.9-28.6,53.8c-9.8-18.8-25.8-33.6-45.3-41.9
		c-11.9-5.6-24.9-8.2-38.2-8.5h-1.9c-27.6,0.2-53.9,11.7-72.8,31.9c-4,4.5-7.5,9.5-10.4,14.8c-8,13-12.3,27.8-12.6,43.1
		c-0.3,1-0.4,2-0.4,3c-0.1,9.9,1.5,19.7,4.8,29c3.7,10.6,9.2,20.4,16.3,29v0.4c13,15.2,30.4,26,49.7,30.8c5.3,1.6,10.8,2.6,16.3,3
		c3,0.3,6,0.4,8.9,0.4c36.8,0,68.7-20.1,84.6-49C2813.6,2308.9,2824.7,2329.7,2839.2,2343.8z"/>
	<ellipse class="st0" cx="3083.1" cy="2262.3" rx="80.1" ry="77"/>
	<ellipse class="st0" cx="2722.6" cy="2238.2" rx="48.2" ry="46.3"/>
</g>
</svg>
