<?xml version="1.0" encoding="utf-8"?>
<!-- Generator: Adobe Illustrator 24.1.1, SVG Export Plug-In . SVG Version: 6.00 Build 0)  -->
<svg version="1.1" id="Layer_1" xmlns="http://www.w3.org/2000/svg" xmlns:xlink="http://www.w3.org/1999/xlink" x="0px" y="0px"
	 viewBox="0 0 261.44 261.09" style="enable-background:new 0 0 261.44 261.09;" xml:space="preserve">
<style type="text/css">
	.st0{fill:#F8F8F8;}
	.st1{fill:#F3F3F3;}
</style>
<path class="st0" d="M130.94,0.02c71.14-1.21,130.68,59.21,130.49,130.7c-0.19,71.61-59.98,130.64-131.09,130.37
	C58.78,260.82-0.2,201.03,0.09,129.87C0.38,58.95,59.63-1.33,130.94,0.02z M248.41,130.82C248.58,66.3,195.71,13.01,131.3,12.79
	C66.76,12.56,13.42,65.37,13.14,129.77c-0.29,64.75,52.72,118.17,117.35,118.29C195,248.18,248.23,195.25,248.41,130.82z"/>
<path class="st1" d="M110.46,168.71c0-10.82-0.14-21.65,0.07-32.47c0.08-4.14-1.39-5.54-5.51-5.49c-10.27,0.12-9.59,1.43-9.63-9.65
	c0-1.17-0.06-2.34,0.01-3.5c0.25-3.79-1.44-8.26,0.86-11.21c2.37-3.04,6.89-1.07,10.46-1.3c3.24-0.21,3.7-2.04,3.76-4.67
	c0.16-7.48-0.47-14.97,0.92-22.42c2.87-15.42,11.5-22.79,27.25-22.92c7.66-0.06,15.32,0.11,22.98-0.07
	c3.65-0.09,5.17,1.34,5.11,4.94c-0.1,5.49-0.1,10.99,0,16.49c0.07,3.67-1.71,5.03-5.2,4.97c-5.16-0.09-10.33-0.11-15.49,0.08
	c-5.74,0.22-8.38,2.83-9.13,8.55c-1.91,14.58-1.52,15.01,13.16,15.01c3.5,0,7,0.08,10.49,0c3.23-0.08,4.57,1.18,3.98,4.54
	c-1.01,5.74-1.83,11.51-2.69,17.27c-0.41,2.73-1.8,4.05-4.7,3.98c-4.99-0.12-10,0.19-14.98-0.08c-4.17-0.22-5.53,1.4-5.5,5.49
	c0.13,20.65,0.07,41.3,0.06,61.95c0,8.09-0.09,8.17-7.96,8.19c-4,0.01-8.01-0.2-11.99,0.05c-4.66,0.3-6.55-1.35-6.4-6.26
	C110.67,189.7,110.46,179.2,110.46,168.71z"/>
</svg>
